<svg xmlns="http://www.w3.org/2000/svg" height="600" width="600" stroke="#000" stroke-width="0"><circle cx="300" cy="340" r="250" fill="#fff"/><circle cx="300" cy="340" r="200" fill="none" stroke-width="60"/><rect x="220" y="10" height="100" width="160" rx="20" fill="#fff"/><rect x="240" y="30" height="60" width="120" rx="10"/><path d="M265 70h70v50h-70z"/><g transform="rotate(-45)"><rect x="-90" y="130" height="80" width="130" rx="20" fill="#fff"/><rect x="-70" y="150" height="40" width="90" rx="10"/><path d="M-50 170H0v60h-50z"/></g><g transform="rotate(45)"><rect x="385" y="-295" height="80" width="130" rx="20" fill="#fff"/><rect x="405" y="-275" height="40" width="90" rx="10"/><path d="M425-255h50v60h-50z"/></g><path d="M452.396 235.011c57.104 20.252 117.86-33.864 104.829-92.711a8.3 8.3 0 00-7.304-6.557 9.13 9.13 0 00-6.723 2.324l-33.2 33.2-36.188-9.711-10.043-35.856 33.2-33.2a8.798 8.798 0 002.241-6.723 8.3 8.3 0 00-6.308-7.802c-59.262-12.699-112.465 47.725-92.628 104.663l-219.95 220.033c-77.522-23.323-136.12 72.376-78.601 130.808s154.131-1.079 130.808-78.518l219.867-219.95zM199.495 470.897l-9.13 34.113a8.3 8.3 0 01-5.893 5.893l-34.113 9.13a8.3 8.3 0 01-8.3-2.158l-24.9-24.9a8.3 8.3 0 01-2.158-8.3l9.13-34.113a8.3 8.3 0 015.893-5.893l34.113-9.13a8.3 8.3 0 018.3 2.158l24.9 24.9a8.3 8.3 0 012.158 8.3z" fill="#e00"/></svg>