<svg xmlns="http://www.w3.org/2000/svg" height="600" width="600" stroke="#000" stroke-width="0"><circle cx="300" cy="340" r="250" fill="#fff"/><circle cx="300" cy="340" r="210" fill="none" stroke-width="60"/><circle cx="300" cy="340" r="40"/><path d="M280 310l90-120a3 3 0 015 3l-40 147"/><rect x="230" y="10" height="80" width="140" rx="20" fill="#fff"/><rect x="240" y="20" height="60" width="120" rx="10"/><path fill="#fff" d="M255 80h90v20h-90z"/><path d="M265 60h70v50h-70z"/><g transform="rotate(-45)"><rect x="-80" y="130" height="60" width="110" rx="20" fill="#fff"/><rect x="-70" y="140" height="40" width="90" rx="10"/><path fill="#fff" d="M-60 180h70v30h-70z"/><path d="M-50 160H0v60h-50z"/></g><g transform="rotate(45)"><rect x="395" y="-295" height="60" width="110" rx="20" fill="#fff"/><rect x="405" y="-285" height="40" width="90" rx="10"/><path fill="#fff" d="M415-245h70v30h-70z"/><path d="M425-265h50v60h-50z"/></g></svg>