<svg xmlns="http://www.w3.org/2000/svg" height="600" width="600" stroke="#000" stroke-width="0"><circle cx="300" cy="340" r="250" fill="#fff"/><circle cx="300" cy="340" r="210" fill="#fff" stroke-width="60"/><rect x="230" y="10" height="80" width="140" rx="20" fill="#fff"/><rect x="240" y="20" height="60" width="120" rx="10"/><path fill="#fff" d="M255 80h90v20h-90z"/><path d="M265 60h70v50h-70z"/><g transform="rotate(-45)"><rect x="-80" y="130" height="60" width="110" rx="20" fill="#fff"/><rect x="-70" y="140" height="40" width="90" rx="10"/><path fill="#fff" d="M-60 180h70v30h-70z"/><path d="M-50 160H0v60h-50z"/></g><g transform="rotate(45)"><rect x="395" y="-295" height="60" width="110" rx="20" fill="#fff"/><rect x="405" y="-285" height="40" width="90" rx="10"/><path fill="#fff" d="M415-245h70v30h-70z"/><path d="M425-265h50v60h-50z"/></g><g transform="translate(-11454.7 -6103.06) scale(8.457)"><svg height="64" width="64" x="1359.608" y="727.583"><path d="M48.12 22.17C55 24.61 62.32 18.09 60.75 11a1 1 0 00-.88-.79 1.1 1.1 0 00-.81.28l-4 4-4.36-1.17L49.49 9l4-4a1.06 1.06 0 00.27-.81 1 1 0 00-.76-.94C45.86 1.72 39.45 9 41.84 15.86l-26.5 26.51C6 39.56-1.06 51.09 5.87 58.13s18.57-.13 15.76-9.46l26.49-26.5zM17.65 50.59l-1.1 4.11a1 1 0 01-.71.71l-4.11 1.1a1 1 0 01-1-.26l-3-3a1 1 0 01-.26-1l1.1-4.11a1 1 0 01.71-.71l4.11-1.1a1 1 0 011 .26l3 3a1 1 0 01.26 1z" fill="#e00"/></svg></g></svg>